<?xml version="1.0" standalone="no"?><!DOCTYPE svg PUBLIC "-//W3C//DTD SVG 1.1//EN" "http://www.w3.org/Graphics/SVG/1.1/DTD/svg11.dtd"><svg width="200" height="200" viewBox="0 0 200 200" version="1.1" xmlns="http://www.w3.org/2000/svg" xmlns:xlink="http://www.w3.org/1999/xlink"><defs><style type="text/css"><![CDATA[

]]></style></defs><g class="transform-group"><g transform="scale(0.1953125, 0.1953125)"><path d="M62.056869 818.172191M946.202635 309.614593c9.083889-7.101745 13.804401-16.057721 12.535501-28.03552-1.224898-11.55108-7.314593-20.450774-17.539468-25.556049l-64.116273-32.057113c-4.620227-2.310625-9.012258-3.50687-14.529925-3.50687-5.504364 0-11.038404 1.481747-15.530718 3.991917l-345.662601 193.885825-55.104015-33.082466c-2.509147-1.484817-4.503571-1.997494-6.016017-2.512217 4.519943-16.512069 6.445806-32.54216 5.019317-48.569182-4.591575-51.596122-38.744419-100.936877-94.191242-135.762033-44.236504-27.806299-90.167602-42.095747-138.755204-42.095747-45.604664 0-82.540901 13.176091-111.217011 39.585577-28.42233 26.184359-43.095517 63.632249-39.573297 103.190197 4.491291 50.596352 38.915311 100.479459 93.676519 135.759987 43.921325 28.322046 90.670046 42.098817 139.269927 42.098817 27.550473 0 53.105498-5.022387 75.637678-15.545044 3.009544 4.50664 6.373151 8.241708 11.023054 11.038404l0 73.127508c-4.649903 2.795673-8.013511 6.504134-11.023054 11.038404-22.531156-10.525728-48.087205-15.545044-75.637678-15.545044-48.599881 0-95.347578 13.776771-139.269927 42.098817-54.762231 35.308157-89.255837 85.136006-93.676519 135.733381-3.594875 41.098024 9.355065 75.835176 39.573297 103.702873 28.392654 26.239618 65.611324 39.073924 111.217011 39.073924 48.586578 0 94.704942-13.947663 138.755204-42.068118 55.645344-35.507702 89.599667-84.165912 94.191242-135.762033 1.427512-16.027022-0.499373-32.057113-5.019317-48.599881 1.512447-0.485047 3.50687-0.997724 6.016017-2.509147l55.104015-33.056883 345.662601 193.887872c4.492314 2.51017 10.026354 3.991917 15.530718 3.991917 5.51869 0 9.910721-1.196245 14.529925-3.507894l64.116273-32.057113c10.223852-5.106298 16.313547-14.004969 17.539468-25.556049 1.2689-12.007475-3.451612-20.906146-12.535501-28.065196L692.223153 509.006829 946.202635 309.614593z" fill="#272636"></path></g></g></svg>